<?xml version="1.0" encoding="iso-8859-1"?>
<!-- Generator: Adobe Illustrator 19.0.0, SVG Export Plug-In . SVG Version: 6.00 Build 0)  -->
<svg version="1.1" id="Layer_1" xmlns="http://www.w3.org/2000/svg" xmlns:xlink="http://www.w3.org/1999/xlink" x="0px" y="0px"
	 viewBox="0 0 390.4 390.4" style="enable-background:new 0 0 390.4 390.4;" xml:space="preserve">
<path style="fill:#FFC10D;" d="M195.265,21.657c-65.034,0-117.592,52.558-117.592,117.592c0,25.988,20.04,68.848,44.994,112.162
	h43.895c5.947,0,10.861,4.848,10.861,10.861c0,5.947-4.848,10.861-10.861,10.861h-30.901c4.331,7.564,9.244,14.61,13.576,21.657
	h17.325c5.947,0,10.861,4.848,10.861,10.861s-4.848,10.861-10.861,10.861h-3.232c11.378,17.325,22.756,33.034,31.418,44.994
	c39.564-53.657,117.592-170.731,117.592-222.19C312.856,74.214,260.299,21.657,195.265,21.657z"/>
<path style="fill:#56ACE0;" d="M206.125,108.412c0,5.947-4.848,10.861-10.861,10.861c-5.947,0-10.861-4.848-10.861-10.861V87.79
	h-35.232v91.604h92.121V87.79h-35.232v20.622H206.125z"/>
<g>
	<path style="fill:#194F82;" d="M195.265,0C118.335,0,55.951,62.319,55.951,139.313c0,73.697,125.22,239.58,130.586,246.626
		c4.848,5.947,12.477,5.947,17.325,0c5.43-7.046,130.586-172.865,130.586-246.626C334.578,62.319,272.194,0,195.265,0z
		 M163.846,315.992h3.232c5.947,0,10.861-4.848,10.861-10.861s-4.848-10.861-10.861-10.861h-17.907
		c-4.331-7.046-9.244-14.093-13.576-21.657h30.901c5.947,0,10.861-4.848,10.861-10.861c0-5.947-4.848-10.861-10.861-10.861h-43.895
		c-24.954-42.796-44.994-86.174-44.994-112.162c0-65.034,52.558-117.592,117.592-117.592s117.592,52.558,117.592,117.592
		c0,50.941-78.028,168.016-117.592,222.19C186.02,349.026,175.224,333.317,163.846,315.992z"/>
	<path style="fill:#194F82;" d="M252.153,66.133H138.376c-5.947,0-10.861,4.848-10.861,10.861v113.261
		c0,5.947,4.848,10.861,10.861,10.861h113.778c5.947,0,10.861-4.848,10.861-10.861V76.929
		C263.014,70.982,258.101,66.133,252.153,66.133z M241.357,179.394h-92.186V87.79h35.232v20.622c0,5.947,4.848,10.861,10.861,10.861
		c5.947,0,10.861-4.848,10.861-10.861V87.79h35.232V179.394z"/>
</g>
<g>
</g>
<g>
</g>
<g>
</g>
<g>
</g>
<g>
</g>
<g>
</g>
<g>
</g>
<g>
</g>
<g>
</g>
<g>
</g>
<g>
</g>
<g>
</g>
<g>
</g>
<g>
</g>
<g>
</g>
</svg>
